<mxfile host="app.diagrams.net" modified="2023-12-21T07:47:21.036Z" agent="Mozilla/5.0 (Windows NT 10.0; Win64; x64) AppleWebKit/537.36 (KHTML, like Gecko) Chrome/120.0.0.0 Safari/537.36" etag="5hqpRhQUoUU-RoQkVyVB" version="22.1.11" type="device">
  <diagram name="第 1 页" id="nl0eBV8b-zQcmgFu8Siu">
    <mxGraphModel dx="1143" dy="607" grid="0" gridSize="10" guides="1" tooltips="1" connect="1" arrows="1" fold="1" page="1" pageScale="1" pageWidth="827" pageHeight="1169" math="0" shadow="0">
      <root>
        <mxCell id="0" />
        <mxCell id="1" parent="0" />
        <mxCell id="8mTVWYpHih1O1ZeY5muJ-1" value="&lt;font style=&quot;font-size: 18px;&quot;&gt;2.設計測試用例&lt;/font&gt;" style="text;html=1;strokeColor=none;fillColor=none;align=center;verticalAlign=middle;whiteSpace=wrap;rounded=0;" vertex="1" parent="1">
          <mxGeometry x="40" y="61" width="150" height="30" as="geometry" />
        </mxCell>
        <mxCell id="8mTVWYpHih1O1ZeY5muJ-85" value="" style="shape=table;startSize=0;container=1;collapsible=0;childLayout=tableLayout;" vertex="1" parent="1">
          <mxGeometry x="106" y="194" width="660.9504259236654" height="316.9647033691406" as="geometry" />
        </mxCell>
        <mxCell id="8mTVWYpHih1O1ZeY5muJ-86" value="" style="shape=tableRow;horizontal=0;startSize=0;swimlaneHead=0;swimlaneBody=0;strokeColor=inherit;top=0;left=0;bottom=0;right=0;collapsible=0;dropTarget=0;fillColor=none;points=[[0,0.5],[1,0.5]];portConstraint=eastwest;" vertex="1" parent="8mTVWYpHih1O1ZeY5muJ-85">
          <mxGeometry width="660.9504259236654" height="40" as="geometry" />
        </mxCell>
        <mxCell id="8mTVWYpHih1O1ZeY5muJ-87" value="&lt;font style=&quot;font-size: 18px;&quot;&gt;蒙緒文&lt;/font&gt;" style="shape=partialRectangle;html=1;whiteSpace=wrap;connectable=0;strokeColor=inherit;overflow=hidden;fillColor=none;top=0;left=0;bottom=0;right=0;pointerEvents=1;align=left;" vertex="1" parent="8mTVWYpHih1O1ZeY5muJ-86">
          <mxGeometry width="155" height="40" as="geometry">
            <mxRectangle width="155" height="40" as="alternateBounds" />
          </mxGeometry>
        </mxCell>
        <mxCell id="8mTVWYpHih1O1ZeY5muJ-88" value="&lt;font style=&quot;font-size: 18px;&quot;&gt;有效等價類1&lt;/font&gt;" style="shape=partialRectangle;html=1;whiteSpace=wrap;connectable=0;strokeColor=inherit;overflow=hidden;fillColor=none;top=0;left=0;bottom=0;right=0;pointerEvents=1;align=left;" vertex="1" parent="8mTVWYpHih1O1ZeY5muJ-86">
          <mxGeometry x="155" width="139" height="40" as="geometry">
            <mxRectangle width="139" height="40" as="alternateBounds" />
          </mxGeometry>
        </mxCell>
        <mxCell id="8mTVWYpHih1O1ZeY5muJ-89" value="&lt;font style=&quot;font-size: 18px;&quot;&gt;無提示&lt;/font&gt;" style="shape=partialRectangle;html=1;whiteSpace=wrap;connectable=0;strokeColor=inherit;overflow=hidden;fillColor=none;top=0;left=0;bottom=0;right=0;pointerEvents=1;align=left;" vertex="1" parent="8mTVWYpHih1O1ZeY5muJ-86">
          <mxGeometry x="294" width="185" height="40" as="geometry">
            <mxRectangle width="185" height="40" as="alternateBounds" />
          </mxGeometry>
        </mxCell>
        <mxCell id="8mTVWYpHih1O1ZeY5muJ-90" value="&lt;font style=&quot;font-size: 18px;&quot;&gt;無提示&lt;/font&gt;" style="shape=partialRectangle;html=1;whiteSpace=wrap;connectable=0;strokeColor=inherit;overflow=hidden;fillColor=none;top=0;left=0;bottom=0;right=0;pointerEvents=1;align=left;" vertex="1" parent="8mTVWYpHih1O1ZeY5muJ-86">
          <mxGeometry x="479" width="182" height="40" as="geometry">
            <mxRectangle width="182" height="40" as="alternateBounds" />
          </mxGeometry>
        </mxCell>
        <mxCell id="8mTVWYpHih1O1ZeY5muJ-91" value="" style="shape=tableRow;horizontal=0;startSize=0;swimlaneHead=0;swimlaneBody=0;strokeColor=inherit;top=0;left=0;bottom=0;right=0;collapsible=0;dropTarget=0;fillColor=none;points=[[0,0.5],[1,0.5]];portConstraint=eastwest;" vertex="1" parent="8mTVWYpHih1O1ZeY5muJ-85">
          <mxGeometry y="40" width="660.9504259236654" height="39" as="geometry" />
        </mxCell>
        <mxCell id="8mTVWYpHih1O1ZeY5muJ-92" value="&lt;font style=&quot;font-size: 18px;&quot;&gt;蒙*&amp;amp;%!文&lt;/font&gt;" style="shape=partialRectangle;html=1;whiteSpace=wrap;connectable=0;strokeColor=inherit;overflow=hidden;fillColor=none;top=0;left=0;bottom=0;right=0;pointerEvents=1;align=left;" vertex="1" parent="8mTVWYpHih1O1ZeY5muJ-91">
          <mxGeometry width="155" height="39" as="geometry">
            <mxRectangle width="155" height="39" as="alternateBounds" />
          </mxGeometry>
        </mxCell>
        <mxCell id="8mTVWYpHih1O1ZeY5muJ-93" value="&lt;font style=&quot;font-size: 18px;&quot;&gt;無效等價類4&lt;/font&gt;" style="shape=partialRectangle;html=1;whiteSpace=wrap;connectable=0;strokeColor=inherit;overflow=hidden;fillColor=none;top=0;left=0;bottom=0;right=0;pointerEvents=1;align=left;" vertex="1" parent="8mTVWYpHih1O1ZeY5muJ-91">
          <mxGeometry x="155" width="139" height="39" as="geometry">
            <mxRectangle width="139" height="39" as="alternateBounds" />
          </mxGeometry>
        </mxCell>
        <mxCell id="8mTVWYpHih1O1ZeY5muJ-94" value="&lt;font style=&quot;font-size: 18px;&quot;&gt;輸入用戶名非法&lt;/font&gt;" style="shape=partialRectangle;html=1;whiteSpace=wrap;connectable=0;strokeColor=inherit;overflow=hidden;fillColor=none;top=0;left=0;bottom=0;right=0;pointerEvents=1;align=left;" vertex="1" parent="8mTVWYpHih1O1ZeY5muJ-91">
          <mxGeometry x="294" width="185" height="39" as="geometry">
            <mxRectangle width="185" height="39" as="alternateBounds" />
          </mxGeometry>
        </mxCell>
        <mxCell id="8mTVWYpHih1O1ZeY5muJ-95" value="&lt;span style=&quot;color: rgb(0, 0, 0); font-family: Helvetica; font-size: 18px; font-style: normal; font-variant-ligatures: normal; font-variant-caps: normal; font-weight: 400; letter-spacing: normal; orphans: 2; text-align: left; text-indent: 0px; text-transform: none; widows: 2; word-spacing: 0px; -webkit-text-stroke-width: 0px; background-color: rgb(251, 251, 251); text-decoration-thickness: initial; text-decoration-style: initial; text-decoration-color: initial; float: none; display: inline !important;&quot;&gt;輸入用戶名非法&lt;/span&gt;" style="shape=partialRectangle;html=1;whiteSpace=wrap;connectable=0;strokeColor=inherit;overflow=hidden;fillColor=none;top=0;left=0;bottom=0;right=0;pointerEvents=1;align=left;" vertex="1" parent="8mTVWYpHih1O1ZeY5muJ-91">
          <mxGeometry x="479" width="182" height="39" as="geometry">
            <mxRectangle width="182" height="39" as="alternateBounds" />
          </mxGeometry>
        </mxCell>
        <mxCell id="8mTVWYpHih1O1ZeY5muJ-96" value="" style="shape=tableRow;horizontal=0;startSize=0;swimlaneHead=0;swimlaneBody=0;strokeColor=inherit;top=0;left=0;bottom=0;right=0;collapsible=0;dropTarget=0;fillColor=none;points=[[0,0.5],[1,0.5]];portConstraint=eastwest;" vertex="1" parent="8mTVWYpHih1O1ZeY5muJ-85">
          <mxGeometry y="79" width="660.9504259236654" height="40" as="geometry" />
        </mxCell>
        <mxCell id="8mTVWYpHih1O1ZeY5muJ-97" value="" style="shape=partialRectangle;html=1;whiteSpace=wrap;connectable=0;strokeColor=inherit;overflow=hidden;fillColor=none;top=0;left=0;bottom=0;right=0;pointerEvents=1;" vertex="1" parent="8mTVWYpHih1O1ZeY5muJ-96">
          <mxGeometry width="155" height="40" as="geometry">
            <mxRectangle width="155" height="40" as="alternateBounds" />
          </mxGeometry>
        </mxCell>
        <mxCell id="8mTVWYpHih1O1ZeY5muJ-98" value="&lt;font style=&quot;font-size: 18px;&quot;&gt;無效等價類6&lt;/font&gt;" style="shape=partialRectangle;html=1;whiteSpace=wrap;connectable=0;strokeColor=inherit;overflow=hidden;fillColor=none;top=0;left=0;bottom=0;right=0;pointerEvents=1;align=left;" vertex="1" parent="8mTVWYpHih1O1ZeY5muJ-96">
          <mxGeometry x="155" width="139" height="40" as="geometry">
            <mxRectangle width="139" height="40" as="alternateBounds" />
          </mxGeometry>
        </mxCell>
        <mxCell id="8mTVWYpHih1O1ZeY5muJ-99" value="&lt;font style=&quot;font-size: 18px;&quot;&gt;提示用戶名未輸入&lt;/font&gt;" style="shape=partialRectangle;html=1;whiteSpace=wrap;connectable=0;strokeColor=inherit;overflow=hidden;fillColor=none;top=0;left=0;bottom=0;right=0;pointerEvents=1;align=left;" vertex="1" parent="8mTVWYpHih1O1ZeY5muJ-96">
          <mxGeometry x="294" width="185" height="40" as="geometry">
            <mxRectangle width="185" height="40" as="alternateBounds" />
          </mxGeometry>
        </mxCell>
        <mxCell id="8mTVWYpHih1O1ZeY5muJ-100" value="&lt;br&gt;&lt;span style=&quot;color: rgb(0, 0, 0); font-family: Helvetica; font-size: 18px; font-style: normal; font-variant-ligatures: normal; font-variant-caps: normal; font-weight: 400; letter-spacing: normal; orphans: 2; text-indent: 0px; text-transform: none; widows: 2; word-spacing: 0px; -webkit-text-stroke-width: 0px; background-color: rgb(251, 251, 251); text-decoration-thickness: initial; text-decoration-style: initial; text-decoration-color: initial; float: none; display: inline !important;&quot;&gt;提示用戶名未輸入&lt;/span&gt;&lt;br&gt;" style="shape=partialRectangle;html=1;whiteSpace=wrap;connectable=0;strokeColor=inherit;overflow=hidden;fillColor=none;top=0;left=0;bottom=0;right=0;pointerEvents=1;align=left;" vertex="1" parent="8mTVWYpHih1O1ZeY5muJ-96">
          <mxGeometry x="479" width="182" height="40" as="geometry">
            <mxRectangle width="182" height="40" as="alternateBounds" />
          </mxGeometry>
        </mxCell>
        <mxCell id="8mTVWYpHih1O1ZeY5muJ-101" value="" style="shape=tableRow;horizontal=0;startSize=0;swimlaneHead=0;swimlaneBody=0;strokeColor=inherit;top=0;left=0;bottom=0;right=0;collapsible=0;dropTarget=0;fillColor=none;points=[[0,0.5],[1,0.5]];portConstraint=eastwest;" vertex="1" parent="8mTVWYpHih1O1ZeY5muJ-85">
          <mxGeometry y="119" width="660.9504259236654" height="32" as="geometry" />
        </mxCell>
        <mxCell id="8mTVWYpHih1O1ZeY5muJ-102" value="&lt;font style=&quot;font-size: 18px;&quot;&gt;1234567&lt;/font&gt;" style="shape=partialRectangle;html=1;whiteSpace=wrap;connectable=0;strokeColor=inherit;overflow=hidden;fillColor=none;top=0;left=0;bottom=0;right=0;pointerEvents=1;align=left;" vertex="1" parent="8mTVWYpHih1O1ZeY5muJ-101">
          <mxGeometry width="155" height="32" as="geometry">
            <mxRectangle width="155" height="32" as="alternateBounds" />
          </mxGeometry>
        </mxCell>
        <mxCell id="8mTVWYpHih1O1ZeY5muJ-103" value="&lt;font style=&quot;font-size: 18px;&quot;&gt;有效等價類2&lt;/font&gt;" style="shape=partialRectangle;html=1;whiteSpace=wrap;connectable=0;strokeColor=inherit;overflow=hidden;fillColor=none;top=0;left=0;bottom=0;right=0;pointerEvents=1;align=left;" vertex="1" parent="8mTVWYpHih1O1ZeY5muJ-101">
          <mxGeometry x="155" width="139" height="32" as="geometry">
            <mxRectangle width="139" height="32" as="alternateBounds" />
          </mxGeometry>
        </mxCell>
        <mxCell id="8mTVWYpHih1O1ZeY5muJ-104" value="&lt;font style=&quot;font-size: 18px;&quot;&gt;無提示&lt;/font&gt;" style="shape=partialRectangle;html=1;whiteSpace=wrap;connectable=0;strokeColor=inherit;overflow=hidden;fillColor=none;top=0;left=0;bottom=0;right=0;pointerEvents=1;align=left;" vertex="1" parent="8mTVWYpHih1O1ZeY5muJ-101">
          <mxGeometry x="294" width="185" height="32" as="geometry">
            <mxRectangle width="185" height="32" as="alternateBounds" />
          </mxGeometry>
        </mxCell>
        <mxCell id="8mTVWYpHih1O1ZeY5muJ-105" value="&lt;font style=&quot;font-size: 18px;&quot;&gt;無提示&lt;/font&gt;" style="shape=partialRectangle;html=1;whiteSpace=wrap;connectable=0;strokeColor=inherit;overflow=hidden;fillColor=none;top=0;left=0;bottom=0;right=0;pointerEvents=1;align=left;" vertex="1" parent="8mTVWYpHih1O1ZeY5muJ-101">
          <mxGeometry x="479" width="182" height="32" as="geometry">
            <mxRectangle width="182" height="32" as="alternateBounds" />
          </mxGeometry>
        </mxCell>
        <mxCell id="8mTVWYpHih1O1ZeY5muJ-106" value="" style="shape=tableRow;horizontal=0;startSize=0;swimlaneHead=0;swimlaneBody=0;strokeColor=inherit;top=0;left=0;bottom=0;right=0;collapsible=0;dropTarget=0;fillColor=none;points=[[0,0.5],[1,0.5]];portConstraint=eastwest;" vertex="1" parent="8mTVWYpHih1O1ZeY5muJ-85">
          <mxGeometry y="151" width="660.9504259236654" height="50" as="geometry" />
        </mxCell>
        <mxCell id="8mTVWYpHih1O1ZeY5muJ-107" value="&lt;font style=&quot;font-size: 18px;&quot;&gt;第一次密碼與&lt;br&gt;第二次密碼不一致&lt;/font&gt;" style="shape=partialRectangle;html=1;whiteSpace=wrap;connectable=0;strokeColor=inherit;overflow=hidden;fillColor=none;top=0;left=0;bottom=0;right=0;pointerEvents=1;align=left;" vertex="1" parent="8mTVWYpHih1O1ZeY5muJ-106">
          <mxGeometry width="155" height="50" as="geometry">
            <mxRectangle width="155" height="50" as="alternateBounds" />
          </mxGeometry>
        </mxCell>
        <mxCell id="8mTVWYpHih1O1ZeY5muJ-108" value="&lt;font style=&quot;font-size: 18px;&quot;&gt;有效等價類5&lt;/font&gt;" style="shape=partialRectangle;html=1;whiteSpace=wrap;connectable=0;strokeColor=inherit;overflow=hidden;fillColor=none;top=0;left=0;bottom=0;right=0;pointerEvents=1;align=left;" vertex="1" parent="8mTVWYpHih1O1ZeY5muJ-106">
          <mxGeometry x="155" width="139" height="50" as="geometry">
            <mxRectangle width="139" height="50" as="alternateBounds" />
          </mxGeometry>
        </mxCell>
        <mxCell id="8mTVWYpHih1O1ZeY5muJ-109" value="&lt;font style=&quot;font-size: 18px;&quot;&gt;兩次密碼不一致&lt;/font&gt;" style="shape=partialRectangle;html=1;whiteSpace=wrap;connectable=0;strokeColor=inherit;overflow=hidden;fillColor=none;top=0;left=0;bottom=0;right=0;pointerEvents=1;align=left;" vertex="1" parent="8mTVWYpHih1O1ZeY5muJ-106">
          <mxGeometry x="294" width="185" height="50" as="geometry">
            <mxRectangle width="185" height="50" as="alternateBounds" />
          </mxGeometry>
        </mxCell>
        <mxCell id="8mTVWYpHih1O1ZeY5muJ-110" value="&lt;div style=&quot;&quot;&gt;&lt;span style=&quot;font-size: 18px;&quot;&gt;兩次密碼不一致&lt;/span&gt;&lt;/div&gt;" style="shape=partialRectangle;html=1;whiteSpace=wrap;connectable=0;strokeColor=inherit;overflow=hidden;fillColor=none;top=0;left=0;bottom=0;right=0;pointerEvents=1;align=left;" vertex="1" parent="8mTVWYpHih1O1ZeY5muJ-106">
          <mxGeometry x="479" width="182" height="50" as="geometry">
            <mxRectangle width="182" height="50" as="alternateBounds" />
          </mxGeometry>
        </mxCell>
        <mxCell id="8mTVWYpHih1O1ZeY5muJ-111" value="" style="shape=tableRow;horizontal=0;startSize=0;swimlaneHead=0;swimlaneBody=0;strokeColor=inherit;top=0;left=0;bottom=0;right=0;collapsible=0;dropTarget=0;fillColor=none;points=[[0,0.5],[1,0.5]];portConstraint=eastwest;" vertex="1" parent="8mTVWYpHih1O1ZeY5muJ-85">
          <mxGeometry y="201" width="660.9504259236654" height="37" as="geometry" />
        </mxCell>
        <mxCell id="8mTVWYpHih1O1ZeY5muJ-112" value="" style="shape=partialRectangle;html=1;whiteSpace=wrap;connectable=0;strokeColor=inherit;overflow=hidden;fillColor=none;top=0;left=0;bottom=0;right=0;pointerEvents=1;" vertex="1" parent="8mTVWYpHih1O1ZeY5muJ-111">
          <mxGeometry width="155" height="37" as="geometry">
            <mxRectangle width="155" height="37" as="alternateBounds" />
          </mxGeometry>
        </mxCell>
        <mxCell id="8mTVWYpHih1O1ZeY5muJ-113" value="&lt;font style=&quot;font-size: 18px;&quot;&gt;無效等價類6&lt;/font&gt;" style="shape=partialRectangle;html=1;whiteSpace=wrap;connectable=0;strokeColor=inherit;overflow=hidden;fillColor=none;top=0;left=0;bottom=0;right=0;pointerEvents=1;align=left;" vertex="1" parent="8mTVWYpHih1O1ZeY5muJ-111">
          <mxGeometry x="155" width="139" height="37" as="geometry">
            <mxRectangle width="139" height="37" as="alternateBounds" />
          </mxGeometry>
        </mxCell>
        <mxCell id="8mTVWYpHih1O1ZeY5muJ-114" value="&lt;font style=&quot;font-size: 18px;&quot;&gt;提示密碼為空&lt;/font&gt;" style="shape=partialRectangle;html=1;whiteSpace=wrap;connectable=0;strokeColor=inherit;overflow=hidden;fillColor=none;top=0;left=0;bottom=0;right=0;pointerEvents=1;align=left;" vertex="1" parent="8mTVWYpHih1O1ZeY5muJ-111">
          <mxGeometry x="294" width="185" height="37" as="geometry">
            <mxRectangle width="185" height="37" as="alternateBounds" />
          </mxGeometry>
        </mxCell>
        <mxCell id="8mTVWYpHih1O1ZeY5muJ-115" value="&lt;font style=&quot;font-size: 18px;&quot;&gt;提示密碼為空&lt;/font&gt;" style="shape=partialRectangle;html=1;whiteSpace=wrap;connectable=0;strokeColor=inherit;overflow=hidden;fillColor=none;top=0;left=0;bottom=0;right=0;pointerEvents=1;align=left;" vertex="1" parent="8mTVWYpHih1O1ZeY5muJ-111">
          <mxGeometry x="479" width="182" height="37" as="geometry">
            <mxRectangle width="182" height="37" as="alternateBounds" />
          </mxGeometry>
        </mxCell>
        <mxCell id="8mTVWYpHih1O1ZeY5muJ-116" value="" style="shape=tableRow;horizontal=0;startSize=0;swimlaneHead=0;swimlaneBody=0;strokeColor=inherit;top=0;left=0;bottom=0;right=0;collapsible=0;dropTarget=0;fillColor=none;points=[[0,0.5],[1,0.5]];portConstraint=eastwest;" vertex="1" parent="8mTVWYpHih1O1ZeY5muJ-85">
          <mxGeometry y="238" width="660.9504259236654" height="40" as="geometry" />
        </mxCell>
        <mxCell id="8mTVWYpHih1O1ZeY5muJ-117" value="&lt;font style=&quot;font-size: 18px;&quot;&gt;信息完整填入&lt;/font&gt;" style="shape=partialRectangle;html=1;whiteSpace=wrap;connectable=0;strokeColor=inherit;overflow=hidden;fillColor=none;top=0;left=0;bottom=0;right=0;pointerEvents=1;align=left;" vertex="1" parent="8mTVWYpHih1O1ZeY5muJ-116">
          <mxGeometry width="155" height="40" as="geometry">
            <mxRectangle width="155" height="40" as="alternateBounds" />
          </mxGeometry>
        </mxCell>
        <mxCell id="8mTVWYpHih1O1ZeY5muJ-118" value="&lt;font style=&quot;font-size: 18px;&quot;&gt;有效等價類3&lt;/font&gt;" style="shape=partialRectangle;html=1;whiteSpace=wrap;connectable=0;strokeColor=inherit;overflow=hidden;fillColor=none;top=0;left=0;bottom=0;right=0;pointerEvents=1;align=left;" vertex="1" parent="8mTVWYpHih1O1ZeY5muJ-116">
          <mxGeometry x="155" width="139" height="40" as="geometry">
            <mxRectangle width="139" height="40" as="alternateBounds" />
          </mxGeometry>
        </mxCell>
        <mxCell id="8mTVWYpHih1O1ZeY5muJ-119" value="&lt;font style=&quot;font-size: 18px;&quot;&gt;無提示&lt;/font&gt;" style="shape=partialRectangle;html=1;whiteSpace=wrap;connectable=0;strokeColor=inherit;overflow=hidden;fillColor=none;top=0;left=0;bottom=0;right=0;pointerEvents=1;align=left;" vertex="1" parent="8mTVWYpHih1O1ZeY5muJ-116">
          <mxGeometry x="294" width="185" height="40" as="geometry">
            <mxRectangle width="185" height="40" as="alternateBounds" />
          </mxGeometry>
        </mxCell>
        <mxCell id="8mTVWYpHih1O1ZeY5muJ-120" value="&lt;font style=&quot;font-size: 18px;&quot;&gt;無提示&lt;/font&gt;" style="shape=partialRectangle;html=1;whiteSpace=wrap;connectable=0;strokeColor=inherit;overflow=hidden;fillColor=none;top=0;left=0;bottom=0;right=0;pointerEvents=1;align=left;" vertex="1" parent="8mTVWYpHih1O1ZeY5muJ-116">
          <mxGeometry x="479" width="182" height="40" as="geometry">
            <mxRectangle width="182" height="40" as="alternateBounds" />
          </mxGeometry>
        </mxCell>
        <mxCell id="8mTVWYpHih1O1ZeY5muJ-121" value="" style="shape=tableRow;horizontal=0;startSize=0;swimlaneHead=0;swimlaneBody=0;strokeColor=inherit;top=0;left=0;bottom=0;right=0;collapsible=0;dropTarget=0;fillColor=none;points=[[0,0.5],[1,0.5]];portConstraint=eastwest;" vertex="1" parent="8mTVWYpHih1O1ZeY5muJ-85">
          <mxGeometry y="278" width="660.9504259236654" height="39" as="geometry" />
        </mxCell>
        <mxCell id="8mTVWYpHih1O1ZeY5muJ-122" value="&lt;font style=&quot;font-size: 18px;&quot;&gt;信息必要項為空&lt;/font&gt;" style="shape=partialRectangle;html=1;whiteSpace=wrap;connectable=0;strokeColor=inherit;overflow=hidden;fillColor=none;top=0;left=0;bottom=0;right=0;pointerEvents=1;align=left;" vertex="1" parent="8mTVWYpHih1O1ZeY5muJ-121">
          <mxGeometry width="155" height="39" as="geometry">
            <mxRectangle width="155" height="39" as="alternateBounds" />
          </mxGeometry>
        </mxCell>
        <mxCell id="8mTVWYpHih1O1ZeY5muJ-123" value="&lt;font style=&quot;font-size: 18px;&quot;&gt;有效等價類6&lt;/font&gt;" style="shape=partialRectangle;html=1;whiteSpace=wrap;connectable=0;strokeColor=inherit;overflow=hidden;fillColor=none;top=0;left=0;bottom=0;right=0;pointerEvents=1;align=left;" vertex="1" parent="8mTVWYpHih1O1ZeY5muJ-121">
          <mxGeometry x="155" width="139" height="39" as="geometry">
            <mxRectangle width="139" height="39" as="alternateBounds" />
          </mxGeometry>
        </mxCell>
        <mxCell id="8mTVWYpHih1O1ZeY5muJ-124" value="&lt;font style=&quot;font-size: 18px;&quot;&gt;提示必要項為全部填入&lt;/font&gt;" style="shape=partialRectangle;html=1;whiteSpace=wrap;connectable=0;strokeColor=inherit;overflow=hidden;fillColor=none;top=0;left=0;bottom=0;right=0;pointerEvents=1;align=left;" vertex="1" parent="8mTVWYpHih1O1ZeY5muJ-121">
          <mxGeometry x="294" width="185" height="39" as="geometry">
            <mxRectangle width="185" height="39" as="alternateBounds" />
          </mxGeometry>
        </mxCell>
        <mxCell id="8mTVWYpHih1O1ZeY5muJ-125" value="&lt;font style=&quot;font-size: 18px;&quot;&gt;提示必要項為全部填入&lt;/font&gt;" style="shape=partialRectangle;html=1;whiteSpace=wrap;connectable=0;strokeColor=inherit;overflow=hidden;fillColor=none;top=0;left=0;bottom=0;right=0;pointerEvents=1;align=left;" vertex="1" parent="8mTVWYpHih1O1ZeY5muJ-121">
          <mxGeometry x="479" width="182" height="39" as="geometry">
            <mxRectangle width="182" height="39" as="alternateBounds" />
          </mxGeometry>
        </mxCell>
        <mxCell id="8mTVWYpHih1O1ZeY5muJ-158" value="" style="shape=table;startSize=0;container=1;collapsible=0;childLayout=tableLayout;" vertex="1" parent="1">
          <mxGeometry x="46" y="140.62" width="60" height="370.6225128173828" as="geometry" />
        </mxCell>
        <mxCell id="8mTVWYpHih1O1ZeY5muJ-159" value="" style="shape=tableRow;horizontal=0;startSize=0;swimlaneHead=0;swimlaneBody=0;strokeColor=inherit;top=0;left=0;bottom=0;right=0;collapsible=0;dropTarget=0;fillColor=none;points=[[0,0.5],[1,0.5]];portConstraint=eastwest;" vertex="1" parent="8mTVWYpHih1O1ZeY5muJ-158">
          <mxGeometry width="60" height="53" as="geometry" />
        </mxCell>
        <mxCell id="8mTVWYpHih1O1ZeY5muJ-160" value="&lt;font style=&quot;font-size: 18px;&quot;&gt;輸入&lt;br&gt;條件&lt;/font&gt;" style="shape=partialRectangle;html=1;whiteSpace=wrap;connectable=0;strokeColor=inherit;overflow=hidden;fillColor=none;top=0;left=0;bottom=0;right=0;pointerEvents=1;" vertex="1" parent="8mTVWYpHih1O1ZeY5muJ-159">
          <mxGeometry width="60" height="53" as="geometry">
            <mxRectangle width="60" height="53" as="alternateBounds" />
          </mxGeometry>
        </mxCell>
        <mxCell id="8mTVWYpHih1O1ZeY5muJ-161" value="" style="shape=tableRow;horizontal=0;startSize=0;swimlaneHead=0;swimlaneBody=0;strokeColor=inherit;top=0;left=0;bottom=0;right=0;collapsible=0;dropTarget=0;fillColor=none;points=[[0,0.5],[1,0.5]];portConstraint=eastwest;" vertex="1" parent="8mTVWYpHih1O1ZeY5muJ-158">
          <mxGeometry y="53" width="60" height="119" as="geometry" />
        </mxCell>
        <mxCell id="8mTVWYpHih1O1ZeY5muJ-162" value="&lt;font style=&quot;font-size: 18px;&quot;&gt;用戶名&lt;/font&gt;" style="shape=partialRectangle;html=1;whiteSpace=wrap;connectable=0;strokeColor=inherit;overflow=hidden;fillColor=none;top=0;left=0;bottom=0;right=0;pointerEvents=1;" vertex="1" parent="8mTVWYpHih1O1ZeY5muJ-161">
          <mxGeometry width="60" height="119" as="geometry">
            <mxRectangle width="60" height="119" as="alternateBounds" />
          </mxGeometry>
        </mxCell>
        <mxCell id="8mTVWYpHih1O1ZeY5muJ-163" value="" style="shape=tableRow;horizontal=0;startSize=0;swimlaneHead=0;swimlaneBody=0;strokeColor=inherit;top=0;left=0;bottom=0;right=0;collapsible=0;dropTarget=0;fillColor=none;points=[[0,0.5],[1,0.5]];portConstraint=eastwest;" vertex="1" parent="8mTVWYpHih1O1ZeY5muJ-158">
          <mxGeometry y="172" width="60" height="119" as="geometry" />
        </mxCell>
        <mxCell id="8mTVWYpHih1O1ZeY5muJ-164" value="&lt;font style=&quot;font-size: 18px;&quot;&gt;密碼&lt;/font&gt;" style="shape=partialRectangle;html=1;whiteSpace=wrap;connectable=0;strokeColor=inherit;overflow=hidden;fillColor=none;top=0;left=0;bottom=0;right=0;pointerEvents=1;" vertex="1" parent="8mTVWYpHih1O1ZeY5muJ-163">
          <mxGeometry width="60" height="119" as="geometry">
            <mxRectangle width="60" height="119" as="alternateBounds" />
          </mxGeometry>
        </mxCell>
        <mxCell id="8mTVWYpHih1O1ZeY5muJ-165" value="" style="shape=tableRow;horizontal=0;startSize=0;swimlaneHead=0;swimlaneBody=0;strokeColor=inherit;top=0;left=0;bottom=0;right=0;collapsible=0;dropTarget=0;fillColor=none;points=[[0,0.5],[1,0.5]];portConstraint=eastwest;" vertex="1" parent="8mTVWYpHih1O1ZeY5muJ-158">
          <mxGeometry y="291" width="60" height="80" as="geometry" />
        </mxCell>
        <mxCell id="8mTVWYpHih1O1ZeY5muJ-166" value="&lt;font style=&quot;font-size: 18px;&quot;&gt;填寫信息完整&lt;/font&gt;" style="shape=partialRectangle;html=1;whiteSpace=wrap;connectable=0;strokeColor=inherit;overflow=hidden;fillColor=none;top=0;left=0;bottom=0;right=0;pointerEvents=1;" vertex="1" parent="8mTVWYpHih1O1ZeY5muJ-165">
          <mxGeometry width="60" height="80" as="geometry">
            <mxRectangle width="60" height="80" as="alternateBounds" />
          </mxGeometry>
        </mxCell>
        <mxCell id="8mTVWYpHih1O1ZeY5muJ-168" value="" style="shape=table;startSize=0;container=1;collapsible=0;childLayout=tableLayout;" vertex="1" parent="1">
          <mxGeometry x="106" y="141" width="660.9504259236654" height="52.55" as="geometry" />
        </mxCell>
        <mxCell id="8mTVWYpHih1O1ZeY5muJ-169" value="" style="shape=tableRow;horizontal=0;startSize=0;swimlaneHead=0;swimlaneBody=0;strokeColor=inherit;top=0;left=0;bottom=0;right=0;collapsible=0;dropTarget=0;fillColor=none;points=[[0,0.5],[1,0.5]];portConstraint=eastwest;" vertex="1" parent="8mTVWYpHih1O1ZeY5muJ-168">
          <mxGeometry width="660.9504259236654" height="53" as="geometry" />
        </mxCell>
        <mxCell id="8mTVWYpHih1O1ZeY5muJ-170" value="&lt;font style=&quot;font-size: 18px;&quot;&gt;測試用例&lt;/font&gt;" style="shape=partialRectangle;html=1;whiteSpace=wrap;connectable=0;strokeColor=inherit;overflow=hidden;fillColor=none;top=0;left=0;bottom=0;right=0;pointerEvents=1;" vertex="1" parent="8mTVWYpHih1O1ZeY5muJ-169">
          <mxGeometry width="155" height="53" as="geometry">
            <mxRectangle width="155" height="53" as="alternateBounds" />
          </mxGeometry>
        </mxCell>
        <mxCell id="8mTVWYpHih1O1ZeY5muJ-171" value="&lt;font style=&quot;font-size: 18px;&quot;&gt;覆蓋範圍&lt;/font&gt;" style="shape=partialRectangle;html=1;whiteSpace=wrap;connectable=0;strokeColor=inherit;overflow=hidden;fillColor=none;top=0;left=0;bottom=0;right=0;pointerEvents=1;" vertex="1" parent="8mTVWYpHih1O1ZeY5muJ-169">
          <mxGeometry x="155" width="139" height="53" as="geometry">
            <mxRectangle width="139" height="53" as="alternateBounds" />
          </mxGeometry>
        </mxCell>
        <mxCell id="8mTVWYpHih1O1ZeY5muJ-172" value="&lt;font style=&quot;font-size: 18px;&quot;&gt;期望結果&lt;/font&gt;" style="shape=partialRectangle;html=1;whiteSpace=wrap;connectable=0;strokeColor=inherit;overflow=hidden;fillColor=none;top=0;left=0;bottom=0;right=0;pointerEvents=1;" vertex="1" parent="8mTVWYpHih1O1ZeY5muJ-169">
          <mxGeometry x="294" width="185" height="53" as="geometry">
            <mxRectangle width="185" height="53" as="alternateBounds" />
          </mxGeometry>
        </mxCell>
        <mxCell id="8mTVWYpHih1O1ZeY5muJ-173" value="&lt;font style=&quot;font-size: 18px;&quot;&gt;實際結果&lt;/font&gt;" style="shape=partialRectangle;html=1;whiteSpace=wrap;connectable=0;strokeColor=inherit;overflow=hidden;fillColor=none;top=0;left=0;bottom=0;right=0;pointerEvents=1;" vertex="1" parent="8mTVWYpHih1O1ZeY5muJ-169">
          <mxGeometry x="479" width="182" height="53" as="geometry">
            <mxRectangle width="182" height="53" as="alternateBounds" />
          </mxGeometry>
        </mxCell>
      </root>
    </mxGraphModel>
  </diagram>
</mxfile>
